<svg width="720" height="720" viewBox="0 0 720 720" fill="none" xmlns="http://www.w3.org/2000/svg">
<path d="M2.82928 106.604C11.2668 111.218 39.6772 119.479 81.5793 101.593C123.876 83.5538 167.404 110.229 183.445 123.28L228.203 83.07C229.874 81.5541 232.048 80.7413 234.312 80.7624L369.159 82.696C371.752 82.7396 374.213 83.9039 375.861 85.86L474.584 202.711C475.727 204.074 477.264 205.062 478.978 205.546L584.688 235.451C586.731 236.045 588.511 237.341 589.698 239.12L634.435 306.686C640.017 306.643 644.784 305.632 648.849 303.896C654.979 301.237 659.638 296.997 662.934 291.548C666.208 286.099 668.054 279.397 668.054 272.19C668.032 262.565 664.802 252.128 657.551 242.702C650.322 233.297 639.072 224.838 622.637 219.455C600.422 212.182 584.273 204.096 572.451 195.967C547.028 193.177 541.711 171.291 541.645 153.603C541.536 152.483 541.469 151.45 541.469 150.638C541.469 149.517 541.558 148.726 541.602 148.352L541.777 148.375C542.305 138.355 544.172 130.731 544.172 130.731C544.172 130.731 545.074 138.794 561.025 145.891C584.118 152.505 590.622 170.414 588.118 183.575C597.808 189.508 610.837 195.681 628.525 201.461C648.146 207.855 662.868 218.512 672.559 231.168C682.293 243.802 686.995 258.327 686.995 272.191C686.995 286.034 682.293 299.371 673.152 309.369C668.582 314.357 662.891 318.466 656.321 321.3C651.134 323.519 645.313 324.662 639.204 325.167L640.457 427.011C640.457 427.561 640.523 428.109 640.633 428.659L656.98 510.42C657.2 511.474 657.574 512.463 658.145 513.364L718.675 611.975C720.059 614.216 720.367 616.963 719.532 619.467C718.719 621.972 716.806 623.971 714.368 624.96L680.157 638.605C676.773 639.945 672.906 639.11 670.379 636.495L598.462 561.503C598.396 561.459 598.352 561.414 598.309 561.371L519.494 482.532L330.111 378.381L301.767 417.031C300.185 419.183 299.658 421.909 300.295 424.502C300.954 427.073 302.712 429.248 305.107 430.391L366.103 459.681C368.256 460.692 369.927 462.559 370.696 464.844C371.488 467.086 371.312 469.591 370.235 471.743L362.215 487.74C360.128 491.915 355.161 493.805 350.833 492.024L227.215 441.443C222.93 439.708 220.688 434.962 222.051 430.545L249.847 340.216C250.682 337.426 250.155 334.392 248.375 332.107L240.706 322.197C239.124 320.154 236.751 318.901 234.202 318.725C231.632 318.572 229.127 319.517 227.303 321.339L188.39 360.1C185.951 362.538 182.347 363.33 179.096 362.187L134.755 346.499C131.635 345.4 129.372 342.675 128.888 339.401L109.815 213.147C72.0449 211.125 69.7148 178.298 69.7148 178.298L121.79 167.158C113.023 158.963 100.959 149.733 88.3687 146.284C69.7795 141.209 47.7196 146.416 24.868 137.275C2.01648 128.115 -4.3988 104.341 2.82928 106.604Z" fill="url(#paint0_linear_1_161)"/>
<defs>
<linearGradient id="paint0_linear_1_161" x1="360" y1="80.762" x2="360" y2="639.236" gradientUnits="userSpaceOnUse">
<stop stop-color="#1E1E1E"/>
<stop offset="1" stop-color="#00E467"/>
</linearGradient>
</defs>
</svg>
