<svg width="1440" height="3457" viewBox="0 0 1440 3457" fill="none" xmlns="http://www.w3.org/2000/svg">
<g filter="url(#filter0_f_1_53)">
<ellipse cx="774.47" cy="622.132" rx="243.631" ry="140.632" fill="#00E467"/>
</g>
<g filter="url(#filter1_f_1_53)">
<ellipse cx="1196.37" cy="1711.75" rx="243.631" ry="140.632" fill="#00E467"/>
</g>
<path d="M410.63 919.785C411.013 919.112 411.984 919.112 412.367 919.785L417.03 927.969C417.175 928.223 417.424 928.401 417.712 928.456L429.597 930.712C430.682 930.918 430.682 932.471 429.597 932.677L417.712 934.933C417.424 934.988 417.175 935.166 417.03 935.421L412.367 943.604C411.984 944.277 411.013 944.277 410.63 943.604L405.967 935.421C405.822 935.166 405.573 934.988 405.285 934.933L393.4 932.677C392.315 932.471 392.315 930.918 393.4 930.712L405.285 928.456C405.573 928.401 405.822 928.223 405.967 927.969L410.63 919.785Z" fill="#00E467"/>
<path d="M949.662 705.723C949.83 705.022 950.822 704.917 951.408 705.54L958.51 713.081C958.73 713.315 959.034 713.464 959.341 713.488L971.897 714.491C973.029 714.582 973.492 716.047 972.487 716.362L961.351 719.857C961.079 719.942 960.885 720.144 960.822 720.407L958.783 728.91C958.615 729.611 957.624 729.715 957.038 729.093L949.935 721.551C949.715 721.318 949.411 721.169 949.105 721.145L936.549 720.141C935.416 720.051 934.954 718.586 935.958 718.271L947.095 714.776C947.367 714.691 947.56 714.489 947.623 714.226L949.662 705.723Z" fill="#00E467"/>
<path d="M1046.77 1079.94C1047.74 1079.54 1048.86 1080.01 1048.49 1080.67L1044.94 1087.06C1044.82 1087.29 1044.87 1087.52 1045.08 1087.69L1051.53 1092.84C1052.21 1093.39 1051.13 1094.24 1050.02 1094.04L1039.54 1092.1C1039.19 1092.04 1038.79 1092.08 1038.46 1092.22L1029.03 1096.15C1028.05 1096.56 1026.94 1096.09 1027.3 1095.43L1030.85 1089.04C1030.98 1088.81 1030.93 1088.58 1030.71 1088.41L1024.27 1083.26C1023.59 1082.71 1024.67 1081.85 1025.78 1082.06L1036.26 1083.99C1036.6 1084.06 1037.01 1084.01 1037.34 1083.87L1046.77 1079.94Z" fill="#00E467"/>
<path d="M738.041 1429.82C737.621 1429.17 738.743 1428.65 739.744 1429.03L746.798 1431.67C747.138 1431.8 747.544 1431.83 747.892 1431.75L755.364 1430.13C756.46 1429.89 757.559 1430.68 756.922 1431.25L752.576 1435.11C752.373 1435.29 752.338 1435.53 752.481 1435.75L755.44 1440.29C755.86 1440.94 754.738 1441.46 753.736 1441.08L746.683 1438.44C746.343 1438.31 745.937 1438.28 745.588 1438.36L738.117 1439.98C737.021 1440.22 735.921 1439.43 736.559 1438.86L740.905 1435C741.107 1434.82 741.142 1434.58 741 1434.36L738.041 1429.82Z" fill="#00E467"/>
<path d="M329.218 1304.24C329.994 1303.69 331.04 1303.93 330.974 1304.63L330.668 1307.91C330.644 1308.17 330.778 1308.39 331.031 1308.51L334.18 1310.01C335.067 1310.43 334.236 1311.66 333.088 1311.63L329.013 1311.5C328.685 1311.49 328.329 1311.6 328.046 1311.8L324.425 1314.33C323.649 1314.88 322.603 1314.64 322.669 1313.94L322.975 1310.66C322.999 1310.4 322.865 1310.18 322.612 1310.06L319.463 1308.56C318.576 1308.14 319.407 1306.91 320.555 1306.95L324.63 1307.07C324.958 1307.08 325.314 1306.97 325.598 1306.77L329.218 1304.24Z" fill="#00E467"/>
<path d="M427.47 1704C427.376 1703.3 428.429 1703.05 429.226 1703.58L432.929 1706.06C433.218 1706.25 433.58 1706.36 433.91 1706.34L438.037 1706.16C439.184 1706.11 440.048 1707.31 439.177 1707.74L436.043 1709.3C435.792 1709.43 435.666 1709.65 435.7 1709.91L436.132 1713.17C436.225 1713.87 435.172 1714.12 434.376 1713.59L430.673 1711.11C430.384 1710.92 430.022 1710.81 429.692 1710.83L425.565 1711.01C424.418 1711.06 423.554 1709.86 424.425 1709.43L427.559 1707.87C427.809 1707.74 427.936 1707.52 427.902 1707.27L427.47 1704Z" fill="#00E467"/>
<path d="M45.1052 1841.18C45.776 1840.53 46.8636 1840.69 46.9005 1841.45L47.3306 1850.28C47.344 1850.56 47.5083 1850.78 47.7761 1850.89L57.967 1855.01C58.8867 1855.38 58.2863 1856.72 57.1693 1856.79L44.7923 1857.54C44.467 1857.56 44.1353 1857.7 43.8929 1857.94L36.0839 1865.54C35.4131 1866.19 34.3255 1866.03 34.2886 1865.27L33.8584 1856.44C33.8451 1856.16 33.6807 1855.94 33.4129 1855.83L23.2221 1851.71C22.3023 1851.34 22.9028 1850 24.0198 1849.93L36.3968 1849.19C36.7221 1849.17 37.0538 1849.02 37.2961 1848.78L45.1052 1841.18Z" fill="#00E467"/>
<path d="M1101.47 1932.57C1101.53 1931.86 1102.55 1931.7 1103.23 1932.29L1112.09 1939.97C1112.34 1940.18 1112.67 1940.32 1112.99 1940.32L1127 1940.71C1128.15 1940.74 1128.8 1942.11 1127.85 1942.48L1116.17 1946.97C1115.91 1947.07 1115.74 1947.28 1115.72 1947.54L1114.96 1956.76C1114.9 1957.47 1113.88 1957.63 1113.2 1957.04L1104.34 1949.36C1104.09 1949.14 1103.76 1949.01 1103.44 1949L1089.43 1948.61C1088.28 1948.58 1087.63 1947.21 1088.58 1946.85L1100.26 1942.36C1100.52 1942.26 1100.69 1942.05 1100.71 1941.78L1101.47 1932.57Z" fill="#00E467"/>
<path d="M596.326 2479.32C596.709 2478.64 597.68 2478.64 598.063 2479.32L598.927 2480.83C599.072 2481.09 599.321 2481.26 599.609 2481.32L599.942 2481.38C601.027 2481.59 601.027 2483.14 599.942 2483.35L599.609 2483.41C599.321 2483.47 599.072 2483.64 598.927 2483.9L598.063 2485.41C597.68 2486.09 596.709 2486.09 596.326 2485.41L595.462 2483.9C595.317 2483.64 595.068 2483.47 594.78 2483.41L594.447 2483.35C593.362 2483.14 593.362 2481.59 594.447 2481.38L594.78 2481.32C595.068 2481.26 595.317 2481.09 595.462 2480.83L596.326 2479.32Z" fill="#00E467"/>
<path d="M703.124 2127.2C703.827 2126.63 704.848 2126.8 704.878 2127.51L704.942 2129.03C704.953 2129.29 705.111 2129.5 705.373 2129.61L705.987 2129.86C706.925 2130.24 706.225 2131.57 705.079 2131.59L704.33 2131.6C704.01 2131.6 703.674 2131.73 703.414 2131.95L701.906 2133.19C701.203 2133.77 700.182 2133.59 700.152 2132.88L700.088 2131.37C700.077 2131.1 699.919 2130.89 699.657 2130.79L699.043 2130.54C698.105 2130.16 698.805 2128.82 699.951 2128.8L700.7 2128.79C701.019 2128.79 701.356 2128.66 701.616 2128.45L703.124 2127.2Z" fill="#00E467"/>
<path d="M878.581 1761.86C878.965 1761.19 879.936 1761.19 880.319 1761.86L883.143 1766.82C883.288 1767.08 883.538 1767.25 883.826 1767.31L890.121 1768.5C891.206 1768.71 891.206 1770.26 890.121 1770.47L883.826 1771.66C883.538 1771.72 883.288 1771.9 883.143 1772.15L880.319 1777.11C879.936 1777.78 878.965 1777.78 878.581 1777.11L875.757 1772.15C875.612 1771.9 875.363 1771.72 875.075 1771.66L868.779 1770.47C867.695 1770.26 867.695 1768.71 868.779 1768.5L875.075 1767.31C875.363 1767.25 875.612 1767.08 875.757 1766.82L878.581 1761.86Z" fill="#00E467"/>
<path d="M1227.4 1662.85C1227.19 1662.16 1228.27 1661.83 1229.15 1662.31L1242.25 1669.52C1242.56 1669.7 1242.95 1669.78 1243.28 1669.74L1259.97 1668.05C1261.11 1667.94 1262.09 1668.99 1261.29 1669.48L1249.6 1676.55C1249.36 1676.7 1249.27 1676.93 1249.34 1677.17L1252.47 1687.46C1252.68 1688.15 1251.6 1688.49 1250.72 1688.01L1237.62 1680.79C1237.31 1680.62 1236.92 1680.54 1236.58 1680.58L1219.9 1682.27C1218.76 1682.38 1217.78 1681.32 1218.57 1680.84L1230.27 1673.76C1230.51 1673.62 1230.6 1673.39 1230.53 1673.15L1227.4 1662.85Z" fill="#00E467"/>
<path d="M1188.57 2865.77C1188.95 2865.1 1189.92 2865.1 1190.31 2865.77L1191.17 2867.28C1191.31 2867.54 1191.56 2867.72 1191.85 2867.77L1192.18 2867.84C1193.27 2868.04 1193.27 2869.59 1192.18 2869.8L1191.85 2869.86C1191.56 2869.92 1191.31 2870.1 1191.17 2870.35L1190.31 2871.87C1189.92 2872.54 1188.95 2872.54 1188.57 2871.87L1187.7 2870.35C1187.56 2870.1 1187.31 2869.92 1187.02 2869.86L1186.69 2869.8C1185.6 2869.59 1185.6 2868.04 1186.69 2867.84L1187.02 2867.77C1187.31 2867.72 1187.56 2867.54 1187.7 2867.28L1188.57 2865.77Z" fill="#00E467"/>
<path d="M11.0156 3444.3C11.3992 3443.63 12.3697 3443.63 12.7533 3444.3L14.5971 3447.54C14.7421 3447.8 14.9916 3447.97 15.2794 3448.03L18.5938 3448.66C19.6784 3448.86 19.6784 3450.42 18.5938 3450.62L15.2794 3451.25C14.9916 3451.31 14.7421 3451.48 14.5971 3451.74L12.7533 3454.98C12.3697 3455.65 11.3992 3455.65 11.0156 3454.98L9.17183 3451.74C9.02678 3451.48 8.77735 3451.31 8.48947 3451.25L5.17513 3450.62C4.09047 3450.42 4.09047 3448.86 5.17513 3448.66L8.48947 3448.03C8.77735 3447.97 9.02678 3447.8 9.17183 3447.54L11.0156 3444.3Z" fill="#00E467"/>
<path d="M1126.65 2633.46C1126.61 2632.75 1127.65 2632.54 1128.4 2633.09L1129.99 2634.27C1130.27 2634.47 1130.62 2634.59 1130.94 2634.58L1131.82 2634.57C1132.97 2634.55 1133.76 2635.82 1132.86 2636.22L1132.16 2636.54C1131.91 2636.65 1131.77 2636.87 1131.78 2637.13L1131.85 2638.62C1131.89 2639.32 1130.85 2639.54 1130.1 2638.98L1128.51 2637.81C1128.23 2637.61 1127.88 2637.49 1127.56 2637.5L1126.68 2637.51C1125.53 2637.53 1124.74 2636.26 1125.64 2635.85L1126.33 2635.54C1126.59 2635.43 1126.73 2635.21 1126.72 2634.95L1126.65 2633.46Z" fill="#00E467"/>
<path d="M109.557 1102.72C109.941 1102.05 110.911 1102.05 111.295 1102.72L113.016 1105.74C113.161 1106 113.411 1106.18 113.699 1106.23L116.64 1106.79C117.725 1106.99 117.725 1108.55 116.64 1108.75L113.699 1109.31C113.411 1109.37 113.161 1109.54 113.016 1109.8L111.295 1112.82C110.911 1113.49 109.941 1113.49 109.557 1112.82L107.836 1109.8C107.691 1109.54 107.442 1109.37 107.154 1109.31L104.212 1108.75C103.127 1108.55 103.127 1106.99 104.212 1106.79L107.154 1106.23C107.442 1106.18 107.691 1106 107.836 1105.74L109.557 1102.72Z" fill="#00E467"/>
<defs>
<filter id="filter0_f_1_53" x="-269.161" y="-318.5" width="2087.26" height="1881.26" filterUnits="userSpaceOnUse" color-interpolation-filters="sRGB">
<feFlood flood-opacity="0" result="BackgroundImageFix"/>
<feBlend mode="normal" in="SourceGraphic" in2="BackgroundImageFix" result="shape"/>
<feGaussianBlur stdDeviation="400" result="effect1_foregroundBlur_1_53"/>
</filter>
<filter id="filter1_f_1_53" x="152.737" y="771.114" width="2087.26" height="1881.26" filterUnits="userSpaceOnUse" color-interpolation-filters="sRGB">
<feFlood flood-opacity="0" result="BackgroundImageFix"/>
<feBlend mode="normal" in="SourceGraphic" in2="BackgroundImageFix" result="shape"/>
<feGaussianBlur stdDeviation="400" result="effect1_foregroundBlur_1_53"/>
</filter>
</defs>
</svg>
