
<svg width="42" height="42" viewBox="0 0 42 42" fill="none" xmlns="http://www.w3.org/2000/svg">
<path fill-rule="evenodd" clip-rule="evenodd" d="M21 42C9.40144 42 0 32.5986 0 21C0 9.40144 9.40144 0 21 0C32.5986 0 42 9.40144 42 21C42 32.5986 32.5986 42 21 42ZM31.4921 21.2874L21.6536 5.25L11.8125 21.2887L21.6536 27.0021L31.4921 21.2874ZM31.5 23.121L21.6536 28.8317L11.8125 23.1223L21.6536 36.7434L31.5 23.121Z" fill="#758178" fill-opacity="0.5"/>
<path d="M21.6538 5.25V16.8919L31.4936 21.2887L21.6538 5.25ZM21.6538 28.833V36.7434L31.5002 23.121L21.6538 28.833Z" fill="#758178" fill-opacity="0.2"/>
<path d="M21.6538 27.0021L31.4936 21.2887L21.6538 16.8945V27.0021Z" fill="#758178" fill-opacity="0.4"/>
<path d="M11.8125 21.2887L21.6536 27.0021V16.8945L11.8125 21.2887Z" fill="#758178" fill-opacity="0.2"/>
</svg>
