<svg width="42" height="56" viewBox="0 0 42 56" fill="none" xmlns="http://www.w3.org/2000/svg">
<path d="M36.2 14.4C36.2 17.6308 29.2157 20.25 20.6 20.25C11.9844 20.25 5 17.6308 5 14.4M36.2 14.4C36.2 11.1691 29.2157 8.54999 20.6 8.54999C11.9844 8.54999 5 11.1691 5 14.4M36.2 14.4V41.7C36.2 44.9309 29.2157 47.55 20.6 47.55C11.9844 47.55 5 44.9309 5 41.7V14.4M36.2 23.4999C36.2 26.7308 29.2157 29.3499 20.6 29.3499C11.9844 29.3499 5 26.7308 5 23.4999M36.2 32.5935C36.2 35.8244 29.2157 38.4435 20.6 38.4435C11.9844 38.4435 5 35.8244 5 32.5935" stroke="#758178" stroke-width="5" stroke-linecap="round" stroke-linejoin="round"/>
</svg>
