<svg width="43" height="42" viewBox="0 0 43 42" fill="none" xmlns="http://www.w3.org/2000/svg">
<path d="M21.5 0C33.0986 0 42.5 9.40144 42.5 21C42.5 32.5986 33.0986 42 21.5 42C9.90144 42 0.5 32.5986 0.5 21C0.5 9.40144 9.90144 0 21.5 0ZM32.9266 25.6161H14.0712C13.8674 25.6158 13.6717 25.696 13.5266 25.8392L9.80169 29.5339C9.74761 29.5873 9.71071 29.6556 9.6957 29.7302C9.68069 29.8047 9.68826 29.882 9.71743 29.9522C9.74661 30.0224 9.79607 30.0823 9.85948 30.1242C9.92289 30.1661 9.99736 30.1881 10.0734 30.1875H28.9287C29.1326 30.1877 29.3283 30.1075 29.4734 29.9644L33.1983 26.2684C33.2519 26.2149 33.2884 26.1466 33.3032 26.0724C33.3179 25.9981 33.3103 25.9211 33.2811 25.8511C33.252 25.7812 33.2028 25.7215 33.1396 25.6797C33.0765 25.6378 33.0024 25.6157 32.9266 25.6161ZM28.9287 18.6703H10.0734L9.98413 18.6795C9.91755 18.6948 9.8563 18.7277 9.80674 18.7747C9.75719 18.8217 9.72116 18.8811 9.70239 18.9468C9.68362 19.0125 9.68282 19.082 9.70005 19.1481C9.71728 19.2142 9.75193 19.2745 9.80037 19.3226L13.5279 23.0186L13.6198 23.0974C13.751 23.1892 13.9085 23.2418 14.0712 23.2418H32.9266L33.0159 23.2326C33.0825 23.2173 33.1437 23.1844 33.1933 23.1374C33.2428 23.0904 33.2788 23.0309 33.2976 22.9652C33.3164 22.8996 33.3172 22.8301 33.2999 22.764C33.2827 22.6979 33.2481 22.6376 33.1996 22.5894L29.4721 18.8934L29.3802 18.8147C29.2485 18.7206 29.0906 18.6701 28.9287 18.6703ZM32.9266 11.8125H14.0712C13.8674 11.8123 13.6717 11.8925 13.5266 12.0356L9.80169 15.7316C9.74807 15.7851 9.71157 15.8534 9.69682 15.9276C9.68207 16.0019 9.68975 16.0789 9.71887 16.1489C9.74799 16.2188 9.79724 16.2785 9.86037 16.3203C9.92349 16.3622 9.99763 16.3843 10.0734 16.3839H28.9287C29.1326 16.3842 29.3283 16.304 29.4734 16.1608L33.1983 12.4661C33.2524 12.4127 33.2893 12.3444 33.3043 12.2698C33.3193 12.1953 33.3117 12.118 33.2826 12.0478C33.2534 11.9776 33.2039 11.9177 33.1405 11.8758C33.0771 11.8339 33.0026 11.8119 32.9266 11.8125Z" fill="#1F2028"/>
</svg>