<svg width="44" height="43" viewBox="0 0 44 43" fill="none" xmlns="http://www.w3.org/2000/svg">
<path d="M36.3909 7.25602C36.3909 7.25602 39.6286 6.00074 39.3588 9.04929C39.2689 10.3046 38.4594 14.6981 37.8299 19.4503L35.6714 33.5274C35.6714 33.5274 35.4915 35.5897 33.8726 35.9484C32.2537 36.307 29.8254 34.6931 29.3757 34.3344C29.0159 34.0654 22.6304 30.0305 20.3819 28.058C19.7523 27.52 19.0328 26.444 20.4718 25.1887L29.9154 16.2224C30.9946 15.1464 32.0739 12.6359 27.5769 15.6844L14.9857 24.2025C14.9857 24.2025 13.5467 25.0991 10.8486 24.2921L5.00261 22.4988C5.00261 22.4988 2.8441 21.1539 6.53155 19.8089C15.5253 15.5947 26.5877 11.2908 36.3909 7.25602Z" fill="#646464"/>
</svg>
