<svg width="37" height="41" viewBox="0 0 37 41" fill="none" xmlns="http://www.w3.org/2000/svg">
<g clip-path="url(#clip0_3_321)">
<path fill-rule="evenodd" clip-rule="evenodd" d="M11.7755 35C25.4546 35 32.9367 23.8413 32.9367 14.1657C32.9367 13.8481 32.9367 13.5328 32.915 13.2187C34.3704 12.1837 35.6265 10.8986 36.6252 9.4282C35.2695 10.0207 33.8285 10.4092 32.3549 10.5805C33.9064 9.66505 35.0683 8.22682 35.6247 6.52976C34.1638 7.38275 32.567 7.98475 30.9013 8.30776C28.0846 5.35975 23.3739 5.21692 20.3778 7.99004C18.4474 9.77811 17.6264 12.4441 18.2263 14.987C12.2468 14.6908 6.67509 11.9106 2.89779 7.3369C0.923951 10.6828 1.93353 14.9616 5.20151 17.1102C4.01793 17.0763 2.85973 16.7625 1.82477 16.1951V16.288C1.82659 19.7732 4.32243 22.774 7.7916 23.4646C6.69684 23.7591 5.5477 23.8018 4.43481 23.5894C5.40813 26.5731 8.20123 28.6168 11.3822 28.6756C8.74861 30.7136 5.49513 31.8201 2.14559 31.8166C1.55471 31.8148 0.963826 31.7808 0.374756 31.7113C3.77686 33.8598 7.7336 35 11.7755 34.9947" fill="#646464"/>
</g>
<defs>
<clipPath id="clip0_3_321">
<rect width="36.2505" height="41" fill="white" transform="translate(0.374756)"/>
</clipPath>
</defs>
</svg>
